<mxfile modified="2022-11-02T07:59:41.403Z" host="app.diagrams.net" agent="5.0 (Macintosh; Intel Mac OS X 10_15_7) AppleWebKit/537.36 (KHTML, like Gecko) Chrome/107.0.0.0 Safari/537.36" etag="FZqWsjue2Pd8uxQatr7C" version="20.5.1" type="github">
  <diagram id="Ht1M8jgEwFfnCIfOTk4-" name="Page-1">
    <mxGraphModel dx="1426" dy="1621" grid="1" gridSize="10" guides="1" tooltips="1" connect="1" arrows="1" fold="1" page="1" pageScale="1" pageWidth="1169" pageHeight="827" math="0" shadow="0">
      <root>
        <mxCell id="0" />
        <mxCell id="1" parent="0" />
        <mxCell id="UEzPUAAOIrF-is8g5C7q-154" value="AWS Cloud" style="points=[[0,0],[0.25,0],[0.5,0],[0.75,0],[1,0],[1,0.25],[1,0.5],[1,0.75],[1,1],[0.75,1],[0.5,1],[0.25,1],[0,1],[0,0.75],[0,0.5],[0,0.25]];outlineConnect=0;gradientColor=none;html=1;whiteSpace=wrap;fontSize=12;fontStyle=0;shape=mxgraph.aws4.group;grIcon=mxgraph.aws4.group_aws_cloud_alt;strokeColor=#232F3E;fillColor=none;verticalAlign=top;align=left;spacingLeft=30;fontColor=#232F3E;dashed=0;labelBackgroundColor=#ffffff;container=1;pointerEvents=0;collapsible=0;recursiveResize=0;" parent="1" vertex="1">
          <mxGeometry x="270" y="-700" width="846" height="510" as="geometry" />
        </mxCell>
        <mxCell id="DON3wK8HoITrnUWRR37Y-8" style="edgeStyle=orthogonalEdgeStyle;rounded=0;orthogonalLoop=1;jettySize=auto;html=1;" edge="1" parent="UEzPUAAOIrF-is8g5C7q-154" source="UEzPUAAOIrF-is8g5C7q-149" target="DON3wK8HoITrnUWRR37Y-7">
          <mxGeometry relative="1" as="geometry" />
        </mxCell>
        <mxCell id="UEzPUAAOIrF-is8g5C7q-149" value="Amazon DynamoDB" style="outlineConnect=0;fontColor=#232F3E;gradientColor=#4D72F3;gradientDirection=north;fillColor=#3334B9;strokeColor=#ffffff;dashed=0;verticalLabelPosition=bottom;verticalAlign=top;align=center;html=1;fontSize=12;fontStyle=0;aspect=fixed;shape=mxgraph.aws4.resourceIcon;resIcon=mxgraph.aws4.dynamodb;labelBackgroundColor=#ffffff;" parent="UEzPUAAOIrF-is8g5C7q-154" vertex="1">
          <mxGeometry x="200" y="384" width="80" height="80" as="geometry" />
        </mxCell>
        <mxCell id="DON3wK8HoITrnUWRR37Y-20" style="edgeStyle=orthogonalEdgeStyle;rounded=0;orthogonalLoop=1;jettySize=auto;html=1;" edge="1" parent="UEzPUAAOIrF-is8g5C7q-154" source="UEzPUAAOIrF-is8g5C7q-148" target="DON3wK8HoITrnUWRR37Y-17">
          <mxGeometry relative="1" as="geometry" />
        </mxCell>
        <mxCell id="DON3wK8HoITrnUWRR37Y-31" style="edgeStyle=orthogonalEdgeStyle;rounded=0;orthogonalLoop=1;jettySize=auto;html=1;" edge="1" parent="UEzPUAAOIrF-is8g5C7q-154" source="UEzPUAAOIrF-is8g5C7q-148" target="UEzPUAAOIrF-is8g5C7q-144">
          <mxGeometry relative="1" as="geometry" />
        </mxCell>
        <mxCell id="UEzPUAAOIrF-is8g5C7q-148" value="Lambda" style="outlineConnect=0;fontColor=#232F3E;gradientColor=#F78E04;gradientDirection=north;fillColor=#D05C17;strokeColor=#ffffff;dashed=0;verticalLabelPosition=bottom;verticalAlign=top;align=center;html=1;fontSize=12;fontStyle=0;aspect=fixed;shape=mxgraph.aws4.resourceIcon;resIcon=mxgraph.aws4.lambda;labelBackgroundColor=#ffffff;spacingTop=8;" parent="UEzPUAAOIrF-is8g5C7q-154" vertex="1">
          <mxGeometry x="530" y="385" width="78" height="78" as="geometry" />
        </mxCell>
        <mxCell id="DON3wK8HoITrnUWRR37Y-26" value="" style="edgeStyle=orthogonalEdgeStyle;rounded=0;orthogonalLoop=1;jettySize=auto;html=1;" edge="1" parent="UEzPUAAOIrF-is8g5C7q-154" source="UEzPUAAOIrF-is8g5C7q-144" target="DON3wK8HoITrnUWRR37Y-25">
          <mxGeometry relative="1" as="geometry" />
        </mxCell>
        <mxCell id="UEzPUAAOIrF-is8g5C7q-144" value="Amazon CloudWatch" style="outlineConnect=0;fontColor=#232F3E;gradientColor=#F34482;gradientDirection=north;fillColor=#BC1356;strokeColor=#ffffff;dashed=0;verticalLabelPosition=bottom;verticalAlign=top;align=center;html=1;fontSize=12;fontStyle=0;aspect=fixed;shape=mxgraph.aws4.resourceIcon;resIcon=mxgraph.aws4.cloudwatch;labelBackgroundColor=#ffffff;spacingTop=5;" parent="UEzPUAAOIrF-is8g5C7q-154" vertex="1">
          <mxGeometry x="534" y="203" width="70" height="70" as="geometry" />
        </mxCell>
        <mxCell id="UEzPUAAOIrF-is8g5C7q-145" value="Amazon SNS" style="outlineConnect=0;fontColor=#232F3E;gradientColor=#F34482;gradientDirection=north;fillColor=#BC1356;strokeColor=#ffffff;dashed=0;verticalLabelPosition=bottom;verticalAlign=top;align=center;html=1;fontSize=12;fontStyle=0;aspect=fixed;shape=mxgraph.aws4.resourceIcon;resIcon=mxgraph.aws4.sns;labelBackgroundColor=#ffffff;spacingTop=5;" parent="UEzPUAAOIrF-is8g5C7q-154" vertex="1">
          <mxGeometry x="760" y="199" width="78" height="78" as="geometry" />
        </mxCell>
        <mxCell id="DON3wK8HoITrnUWRR37Y-9" style="edgeStyle=orthogonalEdgeStyle;rounded=0;orthogonalLoop=1;jettySize=auto;html=1;" edge="1" parent="UEzPUAAOIrF-is8g5C7q-154" source="DON3wK8HoITrnUWRR37Y-7" target="UEzPUAAOIrF-is8g5C7q-148">
          <mxGeometry relative="1" as="geometry" />
        </mxCell>
        <mxCell id="DON3wK8HoITrnUWRR37Y-7" value="" style="sketch=0;outlineConnect=0;fontColor=#232F3E;gradientColor=none;fillColor=#2E27AD;strokeColor=none;dashed=0;verticalLabelPosition=bottom;verticalAlign=top;align=center;html=1;fontSize=12;fontStyle=0;aspect=fixed;pointerEvents=1;shape=mxgraph.aws4.dynamodb_stream;" vertex="1" parent="UEzPUAAOIrF-is8g5C7q-154">
          <mxGeometry x="360" y="385" width="78" height="78" as="geometry" />
        </mxCell>
        <mxCell id="DON3wK8HoITrnUWRR37Y-10" value="" style="sketch=0;points=[[0,0,0],[0.25,0,0],[0.5,0,0],[0.75,0,0],[1,0,0],[0,1,0],[0.25,1,0],[0.5,1,0],[0.75,1,0],[1,1,0],[0,0.25,0],[0,0.5,0],[0,0.75,0],[1,0.25,0],[1,0.5,0],[1,0.75,0]];outlineConnect=0;fontColor=#232F3E;gradientColor=#F78E04;gradientDirection=north;fillColor=#D05C17;strokeColor=#ffffff;dashed=0;verticalLabelPosition=bottom;verticalAlign=top;align=center;html=1;fontSize=12;fontStyle=0;aspect=fixed;shape=mxgraph.aws4.resourceIcon;resIcon=mxgraph.aws4.eks_cloud;" vertex="1" parent="UEzPUAAOIrF-is8g5C7q-154">
          <mxGeometry x="50" y="294" width="78" height="78" as="geometry" />
        </mxCell>
        <mxCell id="DON3wK8HoITrnUWRR37Y-16" style="edgeStyle=orthogonalEdgeStyle;rounded=0;orthogonalLoop=1;jettySize=auto;html=1;" edge="1" parent="UEzPUAAOIrF-is8g5C7q-154" source="DON3wK8HoITrnUWRR37Y-11" target="UEzPUAAOIrF-is8g5C7q-149">
          <mxGeometry relative="1" as="geometry" />
        </mxCell>
        <mxCell id="DON3wK8HoITrnUWRR37Y-11" value="" style="sketch=0;outlineConnect=0;fontColor=#232F3E;gradientColor=none;fillColor=#D45B07;strokeColor=none;dashed=0;verticalLabelPosition=bottom;verticalAlign=top;align=center;html=1;fontSize=12;fontStyle=0;aspect=fixed;pointerEvents=1;shape=mxgraph.aws4.ecs_service;" vertex="1" parent="UEzPUAAOIrF-is8g5C7q-154">
          <mxGeometry x="70" y="400" width="39" height="48" as="geometry" />
        </mxCell>
        <mxCell id="DON3wK8HoITrnUWRR37Y-12" value="Mobile Orchestration API" style="text;html=1;align=center;verticalAlign=middle;resizable=0;points=[];autosize=1;strokeColor=none;fillColor=none;" vertex="1" parent="UEzPUAAOIrF-is8g5C7q-154">
          <mxGeometry x="10" y="459" width="160" height="30" as="geometry" />
        </mxCell>
        <mxCell id="DON3wK8HoITrnUWRR37Y-17" value="" style="sketch=0;outlineConnect=0;fontColor=#232F3E;gradientColor=none;fillColor=#D45B07;strokeColor=none;dashed=0;verticalLabelPosition=bottom;verticalAlign=top;align=center;html=1;fontSize=12;fontStyle=0;aspect=fixed;pointerEvents=1;shape=mxgraph.aws4.ecs_service;" vertex="1" parent="UEzPUAAOIrF-is8g5C7q-154">
          <mxGeometry x="709.5" y="400" width="39" height="48" as="geometry" />
        </mxCell>
        <mxCell id="DON3wK8HoITrnUWRR37Y-18" value="Funds API (NPS)" style="text;html=1;align=center;verticalAlign=middle;resizable=0;points=[];autosize=1;strokeColor=none;fillColor=none;" vertex="1" parent="UEzPUAAOIrF-is8g5C7q-154">
          <mxGeometry x="674" y="448" width="110" height="30" as="geometry" />
        </mxCell>
        <mxCell id="DON3wK8HoITrnUWRR37Y-22" value="DynamoDB Stream on &lt;br&gt;condition a new NPS survey response&lt;br&gt;&amp;nbsp;is submitted" style="text;html=1;align=center;verticalAlign=middle;resizable=0;points=[];autosize=1;strokeColor=none;fillColor=none;" vertex="1" parent="UEzPUAAOIrF-is8g5C7q-154">
          <mxGeometry x="290" y="459" width="230" height="60" as="geometry" />
        </mxCell>
        <mxCell id="DON3wK8HoITrnUWRR37Y-28" value="" style="edgeStyle=orthogonalEdgeStyle;rounded=0;orthogonalLoop=1;jettySize=auto;html=1;" edge="1" parent="UEzPUAAOIrF-is8g5C7q-154" source="DON3wK8HoITrnUWRR37Y-25" target="UEzPUAAOIrF-is8g5C7q-145">
          <mxGeometry relative="1" as="geometry" />
        </mxCell>
        <mxCell id="DON3wK8HoITrnUWRR37Y-25" value="IF Errors above threshold" style="rhombus;whiteSpace=wrap;html=1;verticalAlign=top;fillColor=#BC1356;strokeColor=#ffffff;fontColor=#232F3E;gradientColor=#F34482;gradientDirection=north;dashed=0;fontStyle=0;labelBackgroundColor=#ffffff;spacingTop=5;" vertex="1" parent="UEzPUAAOIrF-is8g5C7q-154">
          <mxGeometry x="650" y="198" width="80" height="80" as="geometry" />
        </mxCell>
        <mxCell id="DON3wK8HoITrnUWRR37Y-14" style="edgeStyle=orthogonalEdgeStyle;rounded=0;orthogonalLoop=1;jettySize=auto;html=1;entryX=0;entryY=0.7;entryDx=0;entryDy=0;entryPerimeter=0;" edge="1" parent="1" source="DON3wK8HoITrnUWRR37Y-3">
          <mxGeometry relative="1" as="geometry">
            <mxPoint x="150" y="-299.1999999999998" as="targetPoint" />
          </mxGeometry>
        </mxCell>
        <mxCell id="DON3wK8HoITrnUWRR37Y-3" value="Mobile client" style="sketch=0;outlineConnect=0;fontColor=#232F3E;gradientColor=none;strokeColor=#232F3E;fillColor=#ffffff;dashed=0;verticalLabelPosition=bottom;verticalAlign=top;align=center;html=1;fontSize=12;fontStyle=0;aspect=fixed;shape=mxgraph.aws4.resourceIcon;resIcon=mxgraph.aws4.mobile_client;" vertex="1" parent="1">
          <mxGeometry x="40" y="-330" width="60" height="60" as="geometry" />
        </mxCell>
        <mxCell id="DON3wK8HoITrnUWRR37Y-15" style="edgeStyle=orthogonalEdgeStyle;rounded=0;orthogonalLoop=1;jettySize=auto;html=1;" edge="1" parent="1" target="DON3wK8HoITrnUWRR37Y-11">
          <mxGeometry relative="1" as="geometry">
            <mxPoint x="230" y="-310" as="sourcePoint" />
          </mxGeometry>
        </mxCell>
        <mxCell id="DON3wK8HoITrnUWRR37Y-21" value="" style="sketch=0;outlineConnect=0;fontColor=#232F3E;gradientColor=none;fillColor=#232F3D;strokeColor=none;dashed=0;verticalLabelPosition=bottom;verticalAlign=top;align=center;html=1;fontSize=12;fontStyle=0;aspect=fixed;pointerEvents=1;shape=mxgraph.aws4.internet;" vertex="1" parent="1">
          <mxGeometry x="150" y="-330" width="78" height="48" as="geometry" />
        </mxCell>
        <mxCell id="DON3wK8HoITrnUWRR37Y-29" value="" style="sketch=0;outlineConnect=0;fontColor=#232F3E;gradientColor=none;fillColor=#B0084D;strokeColor=none;dashed=0;verticalLabelPosition=bottom;verticalAlign=top;align=center;html=1;fontSize=12;fontStyle=0;aspect=fixed;pointerEvents=1;shape=mxgraph.aws4.email_notification;" vertex="1" parent="1">
          <mxGeometry x="1030" y="-810" width="78" height="78" as="geometry" />
        </mxCell>
        <mxCell id="DON3wK8HoITrnUWRR37Y-30" style="edgeStyle=orthogonalEdgeStyle;rounded=0;orthogonalLoop=1;jettySize=auto;html=1;" edge="1" parent="1" source="UEzPUAAOIrF-is8g5C7q-145" target="DON3wK8HoITrnUWRR37Y-29">
          <mxGeometry relative="1" as="geometry" />
        </mxCell>
      </root>
    </mxGraphModel>
  </diagram>
</mxfile>
